PathFileType	4	(X/Y/Z)	C:/Users/beibeiliu/ov580/test_trc/User3\sequence.8_training_dense_left.trc
DataRate	CameraRate	NumFrames	NumMarkers	Units	OrigDataRate	OrigDataStartFrame	OrigNumFrames
120	120	11	19	mm	120	206	235
Frame#	Time	ThumbCMC			ThumbMCP			ThumbIP			ThumbTip			IndexMCP			IndexPIP			IndexTip			MiddleMCP			MiddlePIP			MiddleTip			RingMCP			RingPIP			RingTip			PinkyMCP			PinkyPIP			PinkyTip			BackHand1			BackHand2			BackHand3	
		X0	Y0	Z0	X1	Y1	Z1	X2	Y2	Z2	X3	Y3	Z3	X4	Y4	Z4	X5	Y5	Z5	X6	Y6	Z6	X7	Y7	Z7	X8	Y8	Z8	X9	Y9	Z9	X10	Y10	Z10	X11	Y11	Z11	X12	Y12	Z12	X13	Y13	Z13	X14	Y14	Z14	X15	Y15	Z15	X16	Y16	Z16	X17	Y17	Z17	X18	Y18	Z18	
205	1.70833	-156.556	2.63392	16.093	-145.63	-8.57369	-10.5525	-152.535	-20.953	-41.4299	-164.67	-35.1241	-57.8228	-184.205	19.0999	-51.3339	-183.018	22.2904	-82.0572	-186.912	17.8485	-106.709	-198.896	-0.660487	-59.8534	-190.198	-30.5796	-73.8683	-179.941	-43.3225	-36.4321	-213.021	-22.9811	-50.5124	-197.873	-49.9551	-45.676	-186.395	-43.71	-17.6235	-221.274	-32.1448	-37.9378	-206.18	-53.5879	-32.1267	-194.317	-47.683	-6.63207	-220.92	11.1904	-0.434034	-223.649	6.99297	32.2935	-192.19	21.0821	14.2321	
206	1.71667	-159.153	2.86366	14.2628	-148.282	-7.43351	-13.1772	-154.246	-19.3558	-41.0506	-169.268	-33.7989	-60.959	-190.352	21.6586	-51.0895	-190.244	28.4693	-81.3868	-193.979	29.461	-104.815	-200.966	0.124513	-61.1852	-193.011	-29.057	-73.5747	-178.697	-40.5042	-39.6599	-215.151	-19.5694	-48.1624	-197.886	-46.7253	-48.6633	-190.645	-39.6011	-15.3197	-224.953	-29.5736	-33.7993	-205.798	-51.2325	-33.4517	-193.932	-42.9868	-4.77077	-221.35	11.4347	-0.0125335	-223.43	7.64002	34.8508	-190.303	21.9989	11.712	
207	1.725	-160.425	3.9769	15.9218	-148.247	-5.9417	-14.1217	-153.693	-16.3847	-44.5456	-166.873	-30.9368	-61.5235	-191.857	25.5595	-52.3305	-193.56	31.4636	-77.282	-199.966	33.6313	-100.5	-205.274	1.13612	-61.0953	-194.493	-25.4105	-75.3105	-181.06	-39.6945	-39.3449	-212.367	-16.5922	-49.8703	-202.707	-44.9333	-49.2017	-189.659	-39.0631	-19.6408	-227.431	-31.8896	-35.9495	-208.588	-52.6906	-33.7295	-199.794	-43.6164	-4.24702	-221.991	10.6346	2.02959	-222.954	9.28411	32.3786	-192.361	21.8948	16.2151	
208	1.73333	-160.551	4.00632	16.9974	-152.512	-3.41958	-14.9951	-153.658	-14.6342	-45.5466	-171.711	-30.0531	-62.7789	-196.41	25.3888	-51.1327	-197.443	34.1248	-78.1757	-205.285	34.4653	-100.057	-209.032	3.50391	-58.5131	-195.539	-23.2882	-74.829	-183.146	-37.6483	-37.7709	-219.477	-16.6683	-48.1575	-198.739	-42.1565	-48.9147	-190.578	-35.5364	-17.5943	-225.72	-27.5061	-36.9313	-206.791	-49.1908	-33.3695	-199.095	-44.4655	-8.91867	-223.497	9.73362	4.67828	-223.811	6.90938	34.8425	-195.591	21.451	15.6674	
209	1.74167	-162.044	4.34435	16.0803	-150.707	-3.12296	-13.0559	-156.973	-13.7031	-46.8988	-171.932	-27.265	-60.6262	-195.133	25.0009	-49.1786	-201.265	28.8996	-78.1764	-209.091	27.5192	-103.531	-211.596	2.82253	-58.8632	-197.317	-25.3541	-74.4844	-179.563	-35.5839	-39.5686	-217.896	-13.5299	-48.5287	-201.381	-41.0218	-52.3129	-190.597	-34.3061	-18.6254	-229.247	-29.2842	-36.128	-210.925	-50.6133	-33.6076	-200.1	-40.464	-5.74189	-226.386	10.9937	3.49933	-222.188	9.73276	30.2984	-196.826	23.3421	16.8844	
210	1.75	-163.551	6.1064	12.8683	-152.342	-3.72023	-14.4498	-158.317	-13.9403	-43.9066	-173.193	-28.1465	-62.4724	-193.877	25.4317	-55.5475	-198.209	25.5014	-84.1358	-205.458	18.6462	-105.134	-209.796	2.057	-61.8433	-197.244	-22.4218	-75.5965	-183.874	-35.8614	-36.3997	-220.06	-17.1647	-49.3472	-202.657	-40.2649	-51.9496	-191.803	-34.9973	-20.175	-232.113	-28.8885	-36.3269	-211.029	-50.2599	-33.7429	-199.384	-40.2814	-7.66731	-225.474	13.5056	4.29252	-224.182	7.6835	35.132	-195.445	23.9525	11.7777	
211	1.75833	-166.176	4.48343	14.4259	-155.807	-2.88944	-16.915	-157.799	-14.5695	-46.4878	-171.997	-27.8863	-59.0332	-193.943	23.9839	-57.6788	-198.463	20.5736	-82.9194	-202.981	10.991	-110.134	-211.759	1.70001	-60.6739	-198.212	-23.5716	-75.7134	-186.012	-36.1894	-36.5878	-220.297	-19.3559	-52.4172	-202.481	-44.0801	-48.8172	-193.24	-33.2286	-17.3573	-229.803	-30.4561	-39.2457	-212.011	-48.9862	-34.8106	-199.536	-41.413	-8.69074	-230.146	11.6081	0.34835	-227.264	8.25637	30.3036	-195.053	26.5083	11.9313	
212	1.76667	-163.201	7.23311	13.4713	-150.591	-1.57594	-15.3163	-159.294	-12.9174	-46.2816	-173.979	-27.0935	-59.3171	-195.609	23.7138	-56.7362	-197.727	22.6549	-83.167	-199.083	12.9329	-109.46	-208.194	5.22799	-59.535	-200.667	-24.5759	-74.3263	-184.447	-34.7065	-38.8289	-220.306	-15.8014	-50.551	-202.1	-42.2595	-48.1951	-194.275	-36.0431	-19.846	-231.306	-26.6922	-35.318	-212.142	-48.7186	-34.8706	-204.78	-42.6137	-6.92187	-231.174	10.0463	2.20858	-228.942	8.51127	33.5759	-200.571	21.7722	11.8053	
213	1.775	-169.454	5.02121	16.3499	-152.449	-1.78128	-16.0925	-162.277	-10.7792	-44.9381	-178.555	-25.0017	-64.2059	-199.322	25.5574	-57.2328	-198.972	25.9706	-82.9277	-203.893	17.4162	-105.34	-212.01	4.48863	-63.9678	-201.221	-19.8799	-76.7415	-189.711	-35.6077	-41.8954	-223.264	-14.2173	-50.295	-205.329	-40.7267	-50.2932	-194.625	-35.1005	-21.023	-231.577	-26.2691	-37.5793	-211.818	-45.7033	-35.3269	-203.738	-39.9081	-5.0363	-233.272	11.0474	1.63267	-229.997	7.08386	32.3744	-198.334	23.5333	15.154	
214	1.78333	-170.278	6.80463	14.4144	-159.038	0.786639	-19.1077	-166.327	-8.98335	-47.2857	-180.332	-21.9414	-61.0001	-202.255	30.4015	-55.4781	-206.634	29.7932	-80.4635	-208.743	25.8643	-108.162	-216.041	9.97927	-59.943	-200.996	-17.8625	-76.5514	-188.561	-30.9756	-41.8991	-227.707	-11.8419	-49.6709	-212.481	-37.7642	-52.4985	-200.533	-31.7685	-19.5502	-236.541	-23.6207	-37.9959	-216.306	-44.8658	-34.9718	-207.596	-38.3257	-5.04656	-234.269	15.8875	0.671142	-229.55	9.47019	32.2794	-203.766	26.1985	14.6815	
215	1.79167	-175.274	8.16825	10.666	-162.782	3.57243	-19.7214	-169.55	-6.06981	-48.8415	-183.494	-18.5536	-62.35	-208.096	31.4025	-50.4998	-214.072	34.8351	-77.6206	-218.582	32.327	-102.9	-223.474	10.4497	-62.364	-210.33	-11.9892	-78.2134	-193.354	-28.8256	-42.2368	-229.887	-9.36387	-53.8862	-217.967	-35.5076	-52.2886	-202.036	-30.6944	-23.2334	-241.846	-23.1443	-39.8078	-222.347	-41.4827	-39.0104	-209.279	-36.5963	-9.01267	-238.579	14.7979	1.86091	-231.556	13.0023	34.3489	-206.69	29.0429	11.7419	
